# xmcd
#
# Track frame offsets: 
#        150
#        51088
#        84089
#        136323
#        173985
#        181208
#        226979
#        266370
#
# Disc length: 4386 seconds
#
# Revision: 1
# Processed by: cddbd v1.5.2PL0 Copyright (c) Steve Scherf et al.
# Submitted via: ExactAudioCopy v0.99pb4
#
DISCID=5c112008
DTITLE=Rich Matteson - Tuba Jazz Superhorns Live!!!
DYEAR=2002
DGENRE=Jazz
TTITLE0=Ellington, arr. Matteson:  In A Mellow Tone
TTITLE1=Silver, arr. Matteson:  Senor Blues
TTITLE2=various, arr. Matteson:  Bye Bye Blues
TTITLE3=Terry, arr. Matteson:  C.T.'s Blues (Finger Filibuster)
TTITLE4=Matteson:  Introduction to Shuckin' and Jivin'
TTITLE5=Matteson:  Shuckin' and Jivin'
TTITLE6=Rollins, arr. Matteson:  Oleo
TTITLE7=Sheldon, arr. Wilson:  Your Mama Ain't Got No Draws
EXTD=YEAR: 2002
EXTT0=
EXTT1=
EXTT2=
EXTT3=
EXTT4=
EXTT5=
EXTT6=
EXTT7=
PLAYORDER=
